<svg width="409" height="407" viewBox="0 0 409 407" fill="none" xmlns="http://www.w3.org/2000/svg">
<g opacity="0.49">
<path d="M340.824 355.072C272.873 414.407 175.547 422.044 101.72 378.702C83.8999 368.258 67.385 354.811 53.0253 338.362C44.7351 328.896 37.4897 318.778 31.2229 308.204C12.0974 275.631 2.82783 238.816 3.02354 202.066C3.41497 144.884 26.9795 88.0302 72.5422 48.2119C110.859 14.7251 158.053 -0.875224 205.052 0.0378348C241.476 0.690476 277.769 11.1998 309.753 30.9788C327.377 41.8141 343.631 55.5219 357.926 71.8412C365.694 80.7193 372.613 90.0536 378.553 99.7793C429.468 181.961 416.283 289.078 340.824 355.072Z" fill="white"/>
<path d="M86.0332 71.2904C165.848 1.51293 284.795 12.0375 352.693 89.7042C420.592 167.371 412.915 284.122 333.1 353.899C253.285 423.677 132.014 419.656 64.115 341.99C-3.78367 264.324 6.21764 141.068 86.0332 71.2904Z" fill="white"/>
<path d="M194.936 113.026C180.621 142.798 144.584 154.038 114.812 139.723C85.0397 125.408 72.2872 90.7098 86.6014 60.9375C100.916 31.1653 136.796 17.7642 166.568 32.0791C196.34 46.3941 209.25 83.2536 194.936 113.026Z" fill="#BAC4DB"/>
<path opacity="0.06" d="M102.323 78.0053C116.638 48.233 152.517 34.8319 182.289 49.1469C185.586 50.7317 188.675 52.5946 191.544 54.6923C185.685 45.1791 177.205 37.1908 166.573 32.0791C136.801 17.7642 100.921 31.1653 86.6064 60.9375C73.981 87.1966 82.415 117.285 105.008 133.842C95.0349 117.5 93.2982 96.7745 102.323 78.0053Z" fill="#040000"/>
<path d="M173.443 174.438C172.508 169.858 175.608 165.509 180.186 164.574C184.766 163.639 189.172 166.459 190.106 171.037C191.041 175.617 188.144 180.197 183.565 181.131C178.986 182.066 174.377 179.017 173.443 174.438Z" fill="#BAC4DB"/>
<path opacity="0.5" d="M290.096 77.4429C289.162 72.8632 292.261 68.5136 296.84 67.579C301.419 66.6443 305.825 69.4634 306.76 74.0423C307.694 78.622 304.798 83.2016 300.218 84.1362C295.639 85.0701 291.03 82.0218 290.096 77.4429Z" fill="#99A3FF"/>
<path d="M225.871 318.244C232.813 312.174 243.296 313.246 249.365 320.189C255.435 327.132 254.898 337.436 247.955 343.506C241.013 349.575 230.334 349.075 224.264 342.133C218.195 335.19 218.928 324.313 225.871 318.244Z" fill="#BAC4DB"/>
<path opacity="0.5" d="M46.5929 176.509C45.6583 171.93 48.7577 167.58 53.3366 166.645C57.9162 165.711 62.3218 168.53 63.2564 173.109C64.191 177.688 61.2945 182.268 56.7148 183.203C52.1351 184.137 47.5267 181.089 46.5929 176.509Z" fill="#99A3FF"/>
<path d="M374.609 225.031C371.633 254.307 344.848 274.636 315.572 271.661C286.295 268.685 265.104 243.479 268.08 214.203C271.055 184.927 297.055 162.834 326.331 165.81C355.607 168.786 377.585 195.755 374.609 225.031Z" fill="#BAC4DB"/>
<path d="M138.387 264.52C150.075 284.753 142.275 310.288 122.043 321.976C101.81 333.664 76.4535 327.282 64.7659 307.049C53.0783 286.816 59.5528 260.512 79.7854 248.824C100.017 237.136 126.7 244.288 138.387 264.52Z" fill="#BAC4DB"/>
<path opacity="0.06" d="M90.1215 259.088C104.871 250.568 123.041 252.069 136.338 261.341C123.802 243.576 98.9149 237.778 79.7854 248.829C59.5528 260.516 53.0783 286.822 64.7659 307.054C67.9932 312.64 72.2653 317.164 77.1805 320.55C76.4495 319.512 75.7522 318.438 75.1019 317.313C63.4143 297.081 69.8888 270.776 90.1215 259.088Z" fill="#040000"/>
<path opacity="0.06" d="M279.351 225.343C282.327 196.067 308.326 173.975 337.602 176.951C347.362 177.943 356.307 181.603 363.79 187.124C354.998 175.514 341.668 167.369 326.331 165.81C297.055 162.834 271.055 184.926 268.08 214.202C266.111 233.571 274.723 251.156 289.253 261.703C281.808 251.678 277.968 238.951 279.351 225.343Z" fill="#040000"/>
<path opacity="0.1" d="M203.549 304.918C119.386 304.918 45.0467 263.328 0.0719908 199.749C-2.08724 279.408 44.4484 354.988 123.04 388.865C225.907 433.205 346.43 390.09 390.771 287.223C402.966 258.929 408.071 229.111 406.977 199.819C361.998 263.357 287.681 304.918 203.549 304.918Z" fill="#040000"/>
</g>
</svg>
